SplineFontDB: 3.2
FontName: Gyongyiras_betuelemek
FullName: Gyongyiras_betuelemek
FamilyName: Gyongyiras_betuelemek
Weight: Medium

StartChar: plus
Encoding: 43 43 1
Width: 1000
Flags: HM
LayerCount: 4
Back
SplineSet
333 616 m 31
 333 382 333 284 333 50 c 1052
50 333 m 31
 273 333 393 333 616 333 c 1052
EndSplineSet
EndChar

StartChar: hyphen
Encoding: 45 45 2
Width: 500
Flags: HW
HStem: 148 33<108.505 341.495>
VStem: 108 233<148.5 181.5>
LayerCount: 4
Back
Fore
SplineSet
84 333 m 4
 84 342 91 349 100 349 c 6
 400 349 l 6
 409 349 416 342 416 333 c 4
 416 324 409 317 400 317 c 6
 100 317 l 6
 91 317 84 324 84 333 c 4
EndSplineSet
Layer: 2
SplineSet
100 333 m 1
 400 333 l 1025
EndSplineSet
EndChar

StartChar: zero
Encoding: 48 48 3
Width: 1000
Flags: H
LayerCount: 4
Back
SplineSet
331 0 m 3
 455 0 508 180 508 328 c 3
 508 480 456.00390625 666 331 666 c 3
 204 666 154 480 154 332 c 3
 154 189 206 0 331 0 c 3
EndSplineSet
EndChar

StartChar: one
Encoding: 49 49 4
Width: 129
Flags: HW
LayerCount: 4
Back
Fore
SplineSet
-17 171 m 4
 -17 175 -15 178 -13 181 c 6
 116 343 l 6
 119 346 123 349 129 349 c 4
 137 349 145 343 145 333 c 6
 145 0 l 6
 145 -9 138 -16 129 -16 c 4
 120 -16 113 -9 113 0 c 6
 113 286 l 5
 13 161 l 6
 10 157 5 154 -0 154 c 4
 -9 154 -17 162 -17 171 c 4
EndSplineSet
Layer: 2
SplineSet
0 171 m 29
 129 333 l 29
 129 0 l 1053
EndSplineSet
EndChar

StartChar: two
Encoding: 50 50 5
Width: 1000
Flags: H
LayerCount: 4
Back
SplineSet
616 80 m 30
 616 80 530 0 462 0 c 7
 361 0 329 108 228 108 c 7
 171 108 129.732421875 90 33 0 c 5
 244.661943152 282 446 292.166737953 446 487 c 7
 446 586 375 662 276 662 c 23
 190.71425006 662 124.21875 588 117 522 c 1028
EndSplineSet
EndChar

StartChar: three
Encoding: 51 51 6
Width: 1000
Flags: H
LayerCount: 4
Back
SplineSet
170 544 m 4
 179 621 233 662 306 662 c 7
 424 662 447 577.0078125 447 512 c 7
 447 442.970703125 392.003816738 357 261 357 c 5
 413 356 492 324.391601562 492 180 c 7
 492 87.994140625 443.149906367 0 323 0 c 7
 235 0 164 63 141 148 c 1028
EndSplineSet
EndChar

StartChar: four
Encoding: 52 52 7
Width: 1000
Flags: H
LayerCount: 4
Back
SplineSet
385 667 m 25
 63 233 l 1
 620 233 l 1029
430 361 m 1033
430 361 m 25
 430 0 l 1025
EndSplineSet
EndChar

StartChar: five
Encoding: 53 53 8
Width: 1000
Flags: H
LayerCount: 4
Back
SplineSet
575 666 m 31
 444 666 351 666 220 666 c 5
 220 666 220 474 220 351 c 5
 260 403 311 430 380 430 c 31
 493 430 582 333 582 220 c 31
 582 97 481 0 358 0 c 31
 256 0 195 73 165 121 c 1028
EndSplineSet
EndChar

StartChar: six
Encoding: 54 54 9
Width: 1000
Flags: H
LayerCount: 4
Back
SplineSet
522 586 m 4
 472 653 397.125 666 333 666 c 7
 187.968968838 666 141 488.010742188 141 302 c 7
 141 201 140 204 140 204 c 7
 140 83.9958334057 244.94921875 0 333 0 c 7
 451 0 525 105.980771008 525 210 c 7
 525 314.938476562 443.004882812 389 333 389 c 7
 184.916015625 389 140 265 141 210 c 1030
EndSplineSet
EndChar

StartChar: seven
Encoding: 55 55 10
Width: 1000
Flags: H
LayerCount: 4
Back
SplineSet
262 280 m 29
 508 280 l 1053
77 580 m 4
 107 618 156 664 221 664 c 31
 318 664 352 565 449 565 c 31
 526 565 576 611 620 666 c 13
 219 0 l 1053
EndSplineSet
EndChar

StartChar: eight
Encoding: 56 56 11
Width: 1000
Flags: H
LayerCount: 4
Back
SplineSet
356 0 m 31
 259 0 177 85 177 182 c 31
 177 277 259 372 354 372 c 31
 449 372 531 278 531 183 c 31
 531 87 452 0 356 0 c 31
354 665 m 31
 272 665 209 603 209 521 c 31
 209 448 281 374 354 374 c 31
 428 374 504 451 504 525 c 31
 504 609 438 665 354 665 c 31
EndSplineSet
EndChar

StartChar: nine
Encoding: 57 57 12
Width: 1000
Flags: H
LayerCount: 4
Back
SplineSet
515 450 m 7
 515 360.949452556 421 292 330 292 c 7
 236 292 165 382 165 476 c 31
 165 582 236.978515625 666 330 666 c 7
 428.004882812 666 515 594.038129433 515 476 c 7
 512 269 l 4
 510.901901548 125 475 4 330 4 c 7
 248 4 198.386363636 47 181 92 c 1028
EndSplineSet
EndChar

StartChar: less
Encoding: 60 60 13
Width: 1000
Flags: H
LayerCount: 4
Back
SplineSet
616 606 m 29
 50 333 l 29
 598 60 l 1053
EndSplineSet
EndChar

StartChar: equal
Encoding: 61 61 14
Width: 1000
Flags: HM
LayerCount: 4
Back
SplineSet
50 243 m 31
 270 243 396 243 616 243 c 1052
50 423 m 31
 276 423 390 423 616 423 c 1052
EndSplineSet
EndChar

StartChar: greater
Encoding: 62 62 15
Width: 1000
Flags: H
LayerCount: 4
Back
SplineSet
50 606 m 29
 616 333 l 29
 68 60 l 1053
EndSplineSet
EndChar

StartChar: A
Encoding: 65 65 16
Width: 452
Flags: HMW
LayerCount: 4
Back
Fore
SplineSet
-17 0 m 0
 -17 3 -16 6 -14 9 c 2
 438 675 l 2
 441 679 446 683 452 683 c 0
 461 683 469 675 469 666 c 0
 469 663 468 660 466 657 c 2
 14 -9 l 2
 11 -13 6 -16 0 -16 c 0
 -9 -16 -17 -9 -17 0 c 0
EndSplineSet
Layer: 2
SplineSet
0 0 m 29
 452 666 l 1053
EndSplineSet
EndChar

StartChar: F
Encoding: 70 70 17
Width: 209
Flags: HMW
HStem: -16 32<115 188 115 199> 247 33<284 284 284 316> 333 20G<126.5 133 467 473.5> 532 33<399.5 437 380 444> 630 34<132 193>
VStem: -17 33 284 32<166 247 280 570>
LayerCount: 4
Back
Fore
SplineSet
-17 217 m 4
 -17 221 -15 225 -12 228 c 4
 14 257 39 287 62 317 c 5
 62 529 l 6
 62 578 69 622 96 649 c 4
 110 663 128 670 150 670 c 4
 169 670 184 663 196 651 c 4
 218 629 225 595 225 566 c 4
 225 523 204 472 172 418 c 4
 151 382 124 343 94 305 c 5
 94 -325 l 6
 94 -334 87 -341 78 -341 c 4
 69 -341 62 -334 62 -325 c 6
 62 264 l 5
 46 245 29 225 12 206 c 4
 9 203 5 200 -0 200 c 4
 -9 200 -17 208 -17 217 c 4
94 360 m 5
 112 386 130 411 144 435 c 4
 175 487 193 534 193 566 c 4
 193 590 185 616 173 628 c 4
 167 634 160 638 150 638 c 4
 136 638 127 634 119 626 c 4
 103 610 94 575 94 529 c 6
 94 360 l 5
EndSplineSet
Layer: 2
SplineSet
0 217 m 1
 110 342 209 481 209 566 c 3
 209 606 193.046875 654 150 654 c 3
 96.9619140625 654 78 600 78 529 c 3
 78 326 78 -117 78 -325 c 1025
EndSplineSet
EndChar

StartChar: G
Encoding: 71 71 18
Width: 299
Flags: HMW
HStem: -324 32<542 562 542 583> -16 32<277 362> 332 20G<595 605> 632 34<229.5 353.5>
VStem: -16 32<298.5 412 298.5 422> 488 32<-248 -212.5 -248 -206.5> 584 32<-222 -89 -89 -89 9 162 162 162 213.5 336>
LayerCount: 4
Back
Fore
SplineSet
-16 -260 m 4
 -16 -238 -9 -217 3 -195 c 4
 23 -158 73 -95 106 -52 c 5
 106 660 l 6
 106 669 113 676 122 676 c 4
 131 676 138 669 138 660 c 6
 138 -10 l 5
 216 90 286 179 286 179 c 4
 289 183 294 186 299 186 c 4
 308 186 316 178 316 169 c 4
 316 165 314 162 312 159 c 6
 312 159 225 49 138 -64 c 5
 138 -248 l 6
 138 -276 133 -309 111 -331 c 4
 99 -343 83 -349 64 -349 c 4
 41 -349 22 -341 9 -328 c 4
 -10 -309 -16 -282 -16 -260 c 4
16 -260 m 4
 16 -276 21 -294 32 -305 c 4
 39 -312 49 -317 64 -317 c 4
 75 -317 82 -313 88 -307 c 4
 99 -296 106 -272 106 -248 c 6
 106 -106 l 5
 76 -145 46 -185 32 -211 c 4
 21 -231 16 -246 16 -260 c 4
EndSplineSet
Layer: 2
SplineSet
299 169 m 5
 299 169 184 23 85 -106 c 4
 30.724609375 -176.72265625 0 -220.28515625 0 -260 c 7
 0 -292 15.9892578125 -333 64 -333 c 7
 108.01171875 -333 122 -288.049804688 122 -248 c 4
 122 660 l 1053
EndSplineSet
EndChar

StartChar: H
Encoding: 72 72 19
Width: 506
Flags: HMW
LayerCount: 4
Fore
SplineSet
-16 619 m 4
 -16 625 -14 630 -9 633 c 4
 47 669 92 683 131 683 c 4
 182 683 223 659 266 633 c 4
 313 605 349 589 386 589 c 4
 419 589 453 603 497 633 c 4
 500 635 503 636 506 636 c 4
 515 636 523 628 523 619 c 4
 523 613 519 608 515 605 c 4
 467 572 426 558 386 558 c 4
 341 558 296 578 247 607 c 4
 206 632 172 652 131 652 c 4
 98 652 61 639 9 605 c 4
 6 603 3 603 0 603 c 4
 -9 603 -16 610 -16 619 c 4
EndSplineSet
Layer: 2
SplineSet
506 619 m 5
 409 552 349 565 258 619 c 4
 181.814453125 664.208984375 125 700 0 619 c 1029
EndSplineSet
EndChar

StartChar: I
Encoding: 73 73 20
Width: 200
Flags: HMW
LayerCount: 4
Back
Fore
SplineSet
84 0 m 6
 84 666 l 6
 84 675 91 682 100 682 c 4
 109 682 116 675 116 666 c 6
 116 0 l 6
 116 -9 109 -16 100 -16 c 4
 91 -16 84 -9 84 0 c 6
EndSplineSet
Layer: 2
SplineSet
100 0 m 29
 100 666 l 1053
EndSplineSet
EndChar

StartChar: N
Encoding: 78 78 21
Width: 510
Flags: HMW
HStem: -16 32<81.5 136 81.5 145> 630 32<754 808.5>
VStem: -16 32<84 124.5 84 124.5> 204 32<110 593> 654 32<53 536> 874 32<521.5 562>
LayerCount: 4
Back
Fore
SplineSet
-16 0 m 2
 -16 292 l 2
 -16 446 22 550 85 613 c 0
 132 660 193 682 255 682 c 0
 324 682 385 662 431 616 c 0
 494 553 526 447 526 292 c 2
 526 0 l 2
 526 -9 519 -16 510 -16 c 0
 501 -16 494 -9 494 0 c 2
 494 292 l 2
 494 443 460 539 407 592 c 0
 368 631 317 650 255 650 c 0
 201 650 150 631 109 590 c 0
 55 536 16 441 16 292 c 2
 16 0 l 2
 16 -9 9 -16 0 -16 c 0
 -9 -16 -16 -9 -16 0 c 2
EndSplineSet
Layer: 2
SplineSet
0 0 m 7
 0 8 0 43 0 292 c 7
 0 558 120 666 255 666 c 7
 410 666 510 558 510 292 c 7
 510 50 510 19.0262975904 510 0 c 1028
EndSplineSet
EndChar

StartChar: O
Encoding: 79 79 22
Width: 634
Flags: HMW
HStem: -17 33<274.5 360 274.5 364.5> 632 34<229.5 402>
VStem: -16 32<298.5 412 298.5 422> 617 33<298 413.5>
LayerCount: 4
Back
Fore
SplineSet
-16 333 m 0
 -16 511 124 666 318 666 c 0
 504 666 650 514 650 332 c 0
 650 256 622 159 555 91 c 0
 499 34 412 -17 317 -17 c 0
 223 -17 137 33 82 88 c 0
 13 157 -16 255 -16 333 c 0
16 333 m 0
 16 264 44 174 106 112 c 0
 156 62 232 16 317 16 c 0
 403 16 481 64 531 115 c 0
 591 176 617 264 617 332 c 0
 617 495 486 632 318 632 c 0
 141 632 16 491 16 333 c 0
EndSplineSet
EndChar

StartChar: T
Encoding: 84 84 23
Width: 230
Flags: HMW
HStem: -16 32<115 188 115 199> 532 33<399.5 437 380 444> 630 34<132 193>
VStem: -17 33 284 32<166 569>
LayerCount: 4
Back
Fore
SplineSet
-17 132 m 2
 -16 660 l 2
 -16 669 -9 676 0 676 c 0
 9 676 16 669 16 660 c 2
 16 132 l 2
 16 96 29 68 49 48 c 0
 70 27 98 16 126 16 c 0
 159 16 178 27 192 41 c 0
 201 50 209 61 216 74 c 0
 219 79 224 83 230 83 c 0
 239 83 247 75 247 66 c 0
 247 63 245 60 244 58 c 0
 236 44 227 29 215 17 c 0
 195 -3 166 -16 126 -16 c 0
 89 -16 53 -2 26 25 c 0
 0 51 -17 88 -17 132 c 2
EndSplineSet
Layer: 2
SplineSet
0 660 m 29
 0 457.98046875 -0.33203125 334.030273438 -0.33203125 132.010742188 c 7
 -0.33203125 49.9990234375 62 0 126 0 c 5
 185 0 210 30 230 66 c 1029
EndSplineSet
EndChar

StartChar: U
Encoding: 85 85 24
Width: 510
Flags: HMW
HStem: -16 32<318 423.5 698 773.5> 642 20G<147.5 154 595.5 604.5>
VStem: 134 32<222 599 599 599> 584 32<230 646>
LayerCount: 4
Fore
SplineSet
-16 374 m 6
 -16 666 l 6
 -16 675 -9 682 0 682 c 4
 9 682 16 675 16 666 c 6
 16 374 l 6
 16 225 55 130 109 76 c 4
 150 35 201 16 255 16 c 4
 317 16 368 35 407 74 c 4
 460 127 494 223 494 374 c 6
 494 666 l 6
 494 675 501 682 510 682 c 4
 519 682 526 675 526 666 c 6
 526 374 l 6
 526 219 494 113 431 50 c 4
 385 4 324 -16 255 -16 c 4
 193 -16 132 6 85 53 c 4
 22 116 -16 220 -16 374 c 6
EndSplineSet
Layer: 2
SplineSet
0 666 m 7
 0 658 0 623 0 374 c 7
 0 108 120 0 255 0 c 7
 410 0 510 108 510 374 c 7
 510 616 510 647 510 666 c 1028
EndSplineSet
EndChar

StartChar: V
Encoding: 86 86 25
Width: 452
Flags: HMW
LayerCount: 4
Fore
SplineSet
-17 666 m 4
 -17 675 -9 683 -0 683 c 4
 6 683 11 679 14 675 c 6
 466 9 l 6
 468 6 469 3 469 0 c 4
 469 -9 461 -16 452 -16 c 4
 446 -16 441 -13 438 -9 c 6
 -14 657 l 6
 -16 660 -17 663 -17 666 c 4
EndSplineSet
Layer: 2
SplineSet
0 666 m 29
 452 0 l 1053
EndSplineSet
EndChar

StartChar: X
Encoding: 88 88 26
Width: 834
Flags: HMW
LayerCount: 4
Back
Fore
SplineSet
-17 -0 m 0
 -17 5 -14 10 -10 13 c 2
 402 342 l 1
 402 666 l 2
 402 675 409 682 418 682 c 0
 427 682 434 675 434 666 c 2
 434 368 l 1
 824 679 l 2
 827 681 830 683 834 683 c 0
 843 683 851 675 851 666 c 0
 851 661 848 656 844 653 c 2
 434 326 l 1
 434 0 l 2
 434 -9 427 -16 418 -16 c 0
 409 -16 402 -9 402 0 c 2
 402 300 l 1
 10 -13 l 2
 7 -15 4 -17 -0 -17 c 0
 -9 -17 -17 -9 -17 -0 c 0
EndSplineSet
Layer: 2
SplineSet
0 0 m 1
 834 666 l 1025
418 666 m 25
 418 0 l 1049
EndSplineSet
EndChar

StartChar: Z
Encoding: 90 90 27
Width: 587
Flags: HMW
HStem: -16 32<363.5 453 363.5 459> 82 33<155.5 201.5> 532 33<383.5 429.5> 630 34<132 221.5>
LayerCount: 4
Back
Fore
SplineSet
-17 -0 m 0
 -17 4 -15 8 -12 11 c 0
 -6 18 0 24 6 30 c 0
 63 87 112 107 155 107 c 0
 200 107 239 86 278 64 c 0
 321 40 362 16 414 16 c 0
 493 16 515 43 558 86 c 0
 561 89 565 90 570 90 c 0
 579 90 587 83 587 74 c 0
 587 66 581 61 576 56 c 0
 534 14 499 -16 414 -16 c 0
 352 -16 304 11 262 35 c 0
 224 56 192 76 155 76 c 0
 120 76 80 58 29 7 c 0
 23 1 18 -5 12 -11 c 0
 9 -14 5 -17 -0 -17 c 0
 -9 -17 -17 -9 -17 -0 c 0
-17 551 m 0
 -17 555 -15 559 -13 562 c 0
 31 616 79 663 171 663 c 0
 235 663 283 633 324 607 c 0
 361 584 391 565 425 565 c 0
 462 565 495 582 545 632 c 0
 551 638 559 651 570 651 c 0
 579 651 587 643 587 634 c 0
 587 623 575 615 569 609 c 0
 516 556 475 532 425 532 c 0
 379 532 342 556 306 579 c 0
 265 605 224 631 171 631 c 0
 90 631 53 588 13 540 c 0
 10 536 5 534 -0 534 c 0
 -9 534 -17 542 -17 551 c 0
EndSplineSet
Layer: 2
SplineSet
570 74 m 5
 525 29 498 0 414 0 c 7
 252.54 0 188 206 0 0 c 1029
570 634 m 5
 384 435 332.46 647 171 647 c 23
 87 647 48 609 0 551 c 1029
EndSplineSet
EndChar

StartChar: underscore
Encoding: 95 95 28
Width: 1000
Flags: H
LayerCount: 4
Layer: 2
SplineSet
100 165 m 5
 400 165 l 1025
EndSplineSet
EndChar

StartChar: a
Encoding: 97 97 29
Width: 226
Flags: HMW
LayerCount: 4
Back
Fore
SplineSet
-17 0 m 0
 -17 3 -16 6 -14 9 c 2
 212 342 l 2
 215 346 220 350 226 350 c 0
 235 350 243 342 243 333 c 0
 243 330 242 327 240 324 c 2
 14 -9 l 0
 11 -13 6 -16 0 -16 c 0
 -9 -16 -17 -9 -17 0 c 0
EndSplineSet
Layer: 2
SplineSet
0 0 m 5
 226 333 l 1053
EndSplineSet
EndChar

StartChar: f
Encoding: 102 102 30
Width: 209
Flags: HMW
HStem: -16 34<89 154.5> 634 32<158.5 199>
VStem: 89 33<-63 -16 18 252 252 252> 232 32<538 572>
LayerCount: 4
Back
Fore
SplineSet
-17 -104 m 4
 -17 -100 -15 -96 -12 -93 c 4
 14 -64 39 -34 62 -4 c 5
 62 208 l 6
 62 277 79 349 150 349 c 4
 205 349 225 291 225 245 c 4
 225 202 204 151 172 97 c 4
 151 61 124 22 94 -16 c 5
 94 -325 l 6
 94 -334 87 -341 78 -341 c 4
 69 -341 62 -334 62 -325 c 6
 62 -57 l 5
 46 -76 29 -96 12 -115 c 4
 9 -118 5 -121 -0 -121 c 4
 -9 -121 -17 -113 -17 -104 c 4
94 39 m 5
 130 89 193 187 193 245 c 4
 193 277 182 317 150 317 c 4
 136 317 127 313 119 305 c 4
 103 289 94 254 94 208 c 6
 94 39 l 5
EndSplineSet
Layer: 2
SplineSet
0 -104 m 5
 110 21 209 160 209 245 c 7
 209 285 193.046875 333 150 333 c 7
 96.9619140625 333 78 279 78 208 c 7
 78 5 78 -117 78 -325 c 1029
EndSplineSet
EndChar

StartChar: g
Encoding: 103 103 31
Width: 299
Flags: HMW
HStem: -324 32<251 271 251 292> -16 32<116 179.5> 320 32<118.5 182 109 188>
VStem: -17 33<129.5 170 170 173 129.5 219.5> 196 34<-248 -212.5 -248 -206.5> 292 34<-222 -193.5 -239 -89 141 143 143 167.5 289 318 318 329.5>
LayerCount: 4
Back
Fore
SplineSet
-16 -260 m 4
 -16 -212 18 -166 72 -96 c 4
 83 -82 95 -67 106 -52 c 5
 106 325 l 6
 106 334 113 341 122 341 c 4
 131 341 138 334 138 325 c 6
 138 -10 l 5
 216 90 286 179 286 179 c 4
 289 183 294 186 299 186 c 4
 308 186 316 178 316 169 c 4
 316 165 314 162 312 159 c 6
 312 159 225 49 138 -64 c 5
 138 -248 l 6
 138 -295 118 -349 64 -349 c 4
 41 -349 22 -341 9 -328 c 4
 -10 -309 -16 -282 -16 -260 c 4
16 -260 m 4
 16 -290 31 -317 64 -317 c 4
 96 -317 106 -282 106 -248 c 6
 106 -106 l 5
 104 -109 100 -113 98 -116 c 4
 43 -187 16 -229 16 -260 c 4
EndSplineSet
Layer: 2
SplineSet
299 169 m 5
 299 169 184 23 85 -106 c 4
 30.724356381 -176.722808352 0 -220.285027942 0 -260 c 7
 0 -292 15.9895844634 -333 64 -333 c 7
 108.011362169 -333 122 -288.049968789 122 -248 c 7
 122 325 l 1053
EndSplineSet
EndChar

StartChar: h
Encoding: 104 104 32
Width: 506
Flags: HMW
LayerCount: 4
Back
Fore
SplineSet
-16 45 m 4
 -16 51 -14 56 -9 59 c 4
 47 95 92 109 131 109 c 4
 182 109 223 85 266 59 c 4
 313 31 349 15 386 15 c 4
 419 15 453 29 497 59 c 4
 500 61 503 62 506 62 c 4
 515 62 523 54 523 45 c 4
 523 39 519 34 515 31 c 4
 467 -2 426 -16 386 -16 c 4
 341 -16 296 4 247 33 c 4
 206 58 172 78 131 78 c 4
 98 78 61 65 9 31 c 4
 6 29 3 29 0 29 c 4
 -9 29 -16 36 -16 45 c 4
EndSplineSet
Layer: 2
SplineSet
506 45 m 5
 409 -22 349 -9 258 45 c 4
 181.814453125 90.208984375 125 126 0 45 c 1029
EndSplineSet
EndChar

StartChar: i
Encoding: 105 105 33
Width: 200
Flags: HMW
LayerCount: 4
Back
Fore
SplineSet
84 0 m 6
 84 333 l 6
 84 342 91 349 100 349 c 4
 109 349 116 342 116 333 c 6
 116 0 l 6
 116 -9 109 -16 100 -16 c 4
 91 -16 84 -9 84 0 c 6
EndSplineSet
Layer: 2
SplineSet
100 0 m 29
 100 333 l 1053
EndSplineSet
EndChar

StartChar: j
Encoding: 106 106 34
Width: 299
Flags: HMW
HStem: -324 34<123.5 145.5 123.5 146> 333 20G<179.5 186> 498 64<170 183 166.5 186.5>
VStem: 70 34<-254 -214.5 -254 -206> 147 59<522.5 537 522.5 538.5> 166 32<-232 -94 -94 -94 5 287 287 287>
LayerCount: 4
Back
Fore
SplineSet
-17 169 m 4
 -17 173 -15 176 -13 179 c 6
 109 335 l 6
 112 338 116 341 122 341 c 4
 130 341 138 335 138 325 c 6
 138 -10 l 5
 216 90 286 179 286 179 c 4
 289 183 294 186 299 186 c 4
 308 186 316 178 316 169 c 4
 316 165 314 162 312 159 c 6
 312 159 225 49 138 -64 c 5
 138 -248 l 6
 138 -295 118 -349 64 -349 c 4
 41 -349 22 -341 9 -328 c 4
 -10 -309 -16 -282 -16 -260 c 4
 -16 -212 18 -166 72 -96 c 4
 83 -82 95 -67 106 -52 c 5
 106 277 l 5
 13 159 l 6
 10 155 5 152 -0 152 c 4
 -9 152 -17 160 -17 169 c 4
16 -260 m 4
 16 -290 31 -317 64 -317 c 4
 96 -317 106 -282 106 -248 c 6
 106 -106 l 5
 104 -109 100 -113 98 -116 c 4
 43 -187 16 -229 16 -260 c 4
EndSplineSet
Layer: 2
SplineSet
299 169 m 5
 299 169 184 23 85 -106 c 4
 30.724356381 -176.722808352 0 -220.285027942 0 -260 c 7
 0 -292 15.9895844634 -333 64 -333 c 7
 108.011362169 -333 122 -288.049968789 122 -248 c 7
 122 325 l 29
 0 169 l 1053
EndSplineSet
EndChar

StartChar: k
Encoding: 107 107 35
Width: 209
Flags: HMW
HStem: -16 32<435.5 472 435.5 477> 320 32<213 269.5> 634 32<141 178>
VStem: 62 32<0 181 318 533> 216 34<544.5 592.5> 362 32<125 192>
LayerCount: 4
Back
Fore
SplineSet
-17 221 m 0
 -17 225 -15 229 -12 232 c 0
 14 261 39 291 62 321 c 1
 62 533 l 2
 62 582 69 626 96 653 c 0
 110 667 128 674 150 674 c 0
 169 674 184 667 196 655 c 0
 218 633 225 599 225 570 c 0
 225 527 204 476 172 422 c 0
 151 386 124 347 94 309 c 1
 94 0 l 2
 94 -9 87 -16 78 -16 c 0
 69 -16 62 -9 62 0 c 2
 62 268 l 1
 46 249 29 229 12 210 c 0
 9 207 5 204 -0 204 c 0
 -9 204 -17 212 -17 221 c 0
94 364 m 1
 112 390 130 415 144 439 c 0
 175 491 193 538 193 570 c 0
 193 594 185 620 173 632 c 0
 167 638 160 642 150 642 c 0
 136 642 127 638 119 630 c 0
 103 614 94 579 94 533 c 2
 94 364 l 1
EndSplineSet
Layer: 2
SplineSet
0 221 m 5
 110 346 209 485 209 570 c 7
 209 610 193.0464865 658 150 658 c 7
 96.9622775753 658 78 604 78 533 c 7
 78 330 78 208 78 0 c 1029
EndSplineSet
EndChar

StartChar: n
Encoding: 110 110 36
Width: 300
Flags: HMW
HStem: -16 32<441 489> 320 32<204 274>
VStem: 70 34<0 161> 370 34<132 162 107 195>
LayerCount: 4
Back
Fore
SplineSet
-16 0 m 6
 -16 139 l 6
 -16 219 6 272 39 305 c 4
 72 338 113 349 150 349 c 4
 187 349 229 339 262 306 c 4
 295 273 316 220 316 139 c 6
 316 0 l 6
 316 -9 309 -16 300 -16 c 4
 291 -16 284 -9 284 0 c 6
 284 139 l 6
 284 215 264 258 239 283 c 4
 214 308 181 317 150 317 c 4
 120 317 87 307 62 282 c 4
 36 256 16 213 16 139 c 6
 16 0 l 6
 16 -9 9 -16 0 -16 c 4
 -9 -16 -16 -9 -16 0 c 6
EndSplineSet
Layer: 2
SplineSet
0 0 m 7
 0 4.123046875 0 -21.60546875 0 139 c 7
 0 291.002929688 82 333 150 333 c 7
 218.06640625 333 300 296.114257812 300 139 c 7
 300 100 300 23.1953125 300 0 c 1028
EndSplineSet
EndChar

StartChar: o
Encoding: 111 111 37
Width: 298
Flags: HMW
LayerCount: 4
Back
Fore
SplineSet
-16 169 m 4
 -16 262 51 349 148 349 c 4
 245 349 314 266 314 169 c 4
 314 129 299 67 257 25 c 4
 233 1 199 -16 156 -16 c 4
 103 -16 62 1 34 29 c 4
 -2 65 -16 116 -16 169 c 4
16 169 m 4
 16 79 61 16 156 16 c 4
 189 16 214 29 233 48 c 4
 267 82 282 137 282 169 c 4
 282 248 226 317 148 317 c 4
 70 317 16 245 16 169 c 4
EndSplineSet
Layer: 2
SplineSet
298 169 m 7
 298 261.048828125 231 333 148 333 c 4
 62 333 0 254.999 0 169 c 7
 0 79.8301 44 0 156 0 c 7
 260 0 298 111.964923074 298 169 c 7
EndSplineSet
EndChar

StartChar: t
Encoding: 116 116 38
Width: 230
Flags: HMW
HStem: -17 33<173.5 243.5> 356 34<-1.5 82 3 82 114 193 3 114> 646 20G<93.5 102.5>
VStem: 82 32<132 356 390 650>
LayerCount: 4
Back
Fore
SplineSet
-17.4444444444 208.962962963 m 0
 -17.4444444444 216.777777778 -17.3333333333 223.666666667 -17 232 c 4
 -17 233 l 4
 -17 240 -16 256 -16 333 c 4
 -16 342 -9 349 0 349 c 4
 9 349 16 342 16 333 c 4
 16 291 16.4444444444 271.666666667 16.4444444444 256.037037037 c 0
 16.4444444444 248.222222222 16.3333333333 241.333333333 16 233 c 4
 16 232 l 4
 16 225 16 208 16 132 c 4
 16 96 29 68 49 48 c 4
 70 27 98 16 126 16 c 4
 159 16 178 27 192 41 c 4
 201 50 209 61 216 74 c 4
 219 79 224 83 230 83 c 4
 239 83 247 75 247 66 c 4
 247 63 245 60 244 58 c 4
 236 44 227 29 215 17 c 4
 195 -3 166 -16 126 -16 c 4
 89 -16 53 -2 26 25 c 4
 0 51 -17 88 -17 132 c 4
 -17 174 -17.4444444444 193.333333333 -17.4444444444 208.962962963 c 0
EndSplineSet
Layer: 2
SplineSet
0 333 m 25
 0 130.98046875 -0.33203125 334.030273438 -0.33203125 132.010742188 c 3
 -0.33203125 49.9993278667 62 0 126 0 c 1
 185 0 210 30 230 66 c 1029
EndSplineSet
EndChar

StartChar: u
Encoding: 117 117 39
Width: 300
Flags: HMW
HStem: -16 32<193.5 261 441.5 491> 332 20G<85 92 383.5 392.5>
VStem: 72 32<177 274 274 274> 372 32<184 336>
LayerCount: 4
Fore
SplineSet
-16 194 m 6
 -16 333 l 6
 -16 342 -9 349 0 349 c 4
 9 349 16 342 16 333 c 6
 16 194 l 6
 16 120 36 77 62 51 c 4
 87 26 120 16 150 16 c 4
 181 16 214 25 239 50 c 4
 264 75 284 118 284 194 c 6
 284 333 l 6
 284 342 291 349 300 349 c 4
 309 349 316 342 316 333 c 6
 316 194 l 6
 316 113 295 60 262 27 c 4
 229 -6 187 -16 150 -16 c 4
 113 -16 72 -5 39 28 c 4
 6 61 -16 114 -16 194 c 6
EndSplineSet
Layer: 2
SplineSet
0 333 m 7
 0 329 0 355 0 194 c 7
 0 42 82 0 150 0 c 7
 218 0 300 37 300 194 c 7
 300 233 300 310 300 333 c 1028
EndSplineSet
EndChar

StartChar: v
Encoding: 118 118 40
Width: 226
Flags: HMW
LayerCount: 4
Fore
SplineSet
-17 333 m 4
 -17 342 -9 349 0 349 c 4
 6 349 11 346 14 342 c 6
 240 9 l 6
 242 6 243 3 243 -0 c 4
 243 -9 235 -17 226 -17 c 4
 220 -17 215 -13 212 -9 c 6
 -14 324 l 6
 -16 327 -17 330 -17 333 c 4
EndSplineSet
Layer: 2
SplineSet
226 0 m 5
 219.891891892 9 l 4
 0 333 l 1037
EndSplineSet
EndChar

StartChar: z
Encoding: 122 122 41
Width: 300
Flags: HMW
HStem: -17 33<222 267 263 267> 37 33<83 90 90 112.5> 270 33<195 213 213 214> 320 32<62 110>
LayerCount: 4
Back
Fore
SplineSet
-17 -0 m 0
 -17 10 -7 17 -2 22 c 0
 31 55 60 69 86 69 c 0
 116 69 136 53 154 40 c 0
 173 26 188 16 205 16 c 0
 227 16 233 20 250 37 c 0
 256 43 263 50 271 59 c 2
 271 59 l 2
 274 62 278 65 283 65 c 0
 292 65 300 57 300 48 c 0
 300 44 298 40 295 37 c 0
 271 10 248 -16 205 -16 c 0
 175 -16 153 0 135 13 c 0
 117 26 105 36 86 36 c 0
 71 36 51 28 21 -2 c 0
 16 -7 10 -17 -0 -17 c 0
 -9 -17 -17 -9 -17 -0 c 0
-9 288 m 0
 -9 296 -3 301 1 305 c 0
 21 330 41 352 86 352 c 0
 120 352 145 336 165 323 c 0
 184 311 198 303 213 303 c 0
 231 303 259 322 282 347 c 2
 282 347 l 2
 285 350 289 353 294 353 c 0
 303 353 311 345 311 336 c 0
 311 326 301 319 296 314 c 0
 266 284 243 270 213 270 c 0
 162 270 134 320 86 320 c 0
 48 320 39 298 21 277 c 0
 18 273 13 271 8 271 c 0
 -1 271 -9 279 -9 288 c 0
EndSplineSet
Layer: 2
SplineSet
0 0 m 5
 109 118 135 0 205 0 c 7
 239 0 251 12 283 48 c 1028
8 288 m 5
 32 317 44 336 86 336 c 15
 167.12 336 192 225 294 336 c 1029
EndSplineSet
EndChar

StartChar: dieresis
Encoding: 168 168 42
Width: 1333
Flags: MW
HStem: 487 64<207 214>
VStem: 180 59<514.5 524.5> 271 59<515.5 527.5 515.5 527.5>
LayerCount: 4
Fore
SplineSet
180 519 m 4
 180 530 185 542 197 548 c 4
 201 550 205 551 209 551 c 4
 226 551 239 535 239 518 c 4
 239 511 237 504 232 498 c 4
 226 490 218 487 210 487 c 4
 195 487 180 499 180 519 c 4
271 521 m 4
 271 534 278 545 288 550 c 4
 292 552 296 553 300 553 c 4
 317 553 330 536 330 519 c 4
 330 512 328 505 323 499 c 4
 317 491 309 488 301 488 c 4
 285 488 271 501 271 521 c 4
EndSplineSet
EndChar

StartChar: acute
Encoding: 180 180 43
Width: 1333
Flags: MW
HStem: 504 162<460 492 460 492>
VStem: 460 32<504 666 504 666>
LayerCount: 4
Fore
SplineSet
460 504 m 1
 460 666 l 1
 492 666 l 1
 492 504 l 1
 460 504 l 1
EndSplineSet
EndChar

StartChar: caron
Encoding: 711 711 44
Width: 324
Flags: HW
LayerCount: 4
Back
Fore
SplineSet
56.5022878271 487.002287827 m 4
 56.5022878271 496.108885327 63.8956903271 503.502287827 73.0022878271 503.502287827 c 4
 77.5555865771 503.502287827 81.6805865771 501.653937202 84.6672618896 498.66726189 c 6
 149.923489395 433.411034384 l 5
 214.258164942 498.592218819 l 6
 217.250709358 501.62413882 221.407375777 503.504322301 225.999717237 503.504322301 c 4
 235.106318475 503.504322301 242.49972401 496.110916766 242.49972401 487.004315528 c 4
 242.49972401 482.49005575 240.682932954 478.396781757 237.744709938 475.410693888 c 6
 237.744709938 475.410693888 161.74618231 398.41069879 161.70750344 398.371638849 c 4
 158.483959963 395.126955002 154.242231465 393.502919237 149.999719688 393.502919237 c 4
 145.794110786 393.502919237 141.587732172 395.098824999 138.33273811 398.33273811 c 6
 61.3327381104 475.33273811 l 6
 58.3506384521 478.323989077 56.5022878271 482.448989077 56.5022878271 487.002287827 c 4
EndSplineSet
Layer: 2
SplineSet
73 487 m 29
 150 410 l 5
 226 487 l 1053
EndSplineSet
EndChar

StartChar: hungarumlaut
Encoding: 733 733 45
Width: 1333
Flags: MW
HStem: 505 161<159 192 159 192 224 256 159 224>
VStem: 159 33<505 666 505 666> 224 32<505 666 505 666>
LayerCount: 4
Fore
SplineSet
159 505 m 1
 159 666 l 1
 192 666 l 1
 192 505 l 1
 159 505 l 1
224 505 m 1
 224 666 l 1
 256 666 l 1
 256 505 l 1
 224 505 l 1
EndSplineSet
EndChar

StartChar: minus
Encoding: 8722 8722 46
Width: 666
VWidth: 0
Flags: HW
LayerCount: 4
Back
SplineSet
50 333 m 31
 275 333 391 333 616 333 c 1052
EndSplineSet
Fore
SplineSet
33.5 333 m 0
 33.5 341.987322834 41.0126771663 349.5 50 349.5 c 2
 616 349.5 l 2
 624.987322834 349.5 632.5 341.987322834 632.5 333 c 0
 632.5 324.012677166 624.987322834 316.5 616 316.5 c 2
 50 316.5 l 2
 41.0126771663 316.5 33.5 324.012677166 33.5 333 c 0
EndSplineSet
EndChar

StartChar: germandbls
Encoding: 223 223 47
Width: 1000
Flags: H
LayerCount: 4
Back
SplineSet
0 150 m 4
 13.744140625 164.1796875 125 400 131 667 c 5
 131 -299 l 5
 130 118 131 250.032226562 131 358 c 7
 131 523.213867188 219.505859375 596 276 596 c 7
 407 596 490.237304688 336 173 336 c 5
 372.719726562 336 453 237.514648438 453 163 c 7
 453 -88.525390625 183.001953125 17.89453125 173 48 c 1029
EndSplineSet
EndChar

StartChar: slash
Encoding: 47 47 48
Width: 1000
Flags: H
LayerCount: 4
Back
SplineSet
166 50 m 29
 500 616 l 1053
EndSplineSet
EndChar

StartChar: parenleft
Encoding: 40 40 49
Width: 1000
Flags: H
LayerCount: 4
Back
SplineSet
376 616 m 4
 215.262695312 374.896484375 219.380859375 277.602539062 376 50 c 1028
EndSplineSet
EndChar

StartChar: parenright
Encoding: 41 41 50
Width: 1000
Flags: H
LayerCount: 4
Back
SplineSet
280 616 m 4
 440.737304688 374.896484375 436.619140625 277.602539062 280 50 c 1028
EndSplineSet
EndChar

StartChar: uni02CA
Encoding: 714 714 53
Width: 1000
Flags: HW
LayerCount: 4
Back
Fore
SplineSet
96.0008984607 389.501534205 m 4
 86.8930247455 389.501534205 79.4985861206 396.89597283 79.4985861206 406.003846545 c 4
 79.4985861206 409.511814879 80.5955252702 412.7656011 82.4648091478 415.440610787 c 6
 140.48144461 498.464416707 l 6
 143.465454684 502.73463802 148.417628541 505.529964806 154.017533923 505.529964806 c 4
 163.125407638 505.529964806 170.519846263 498.135526181 170.519846263 489.027652466 c 4
 170.519846263 485.519684132 169.422907114 482.265897911 167.535190852 479.559389213 c 6
 167.535190852 479.559389213 109.535190852 396.559389213 109.51855539 396.535583293 c 4
 106.5529777 392.296860991 101.600803842 389.501534205 96.0008984607 389.501534205 c 4
EndSplineSet
Layer: 2
SplineSet
96 406 m 29
 154 489 l 1053
EndSplineSet
EndChar

StartChar: uni0335
Encoding: 821 821 55
Width: 0
Flags: HW
LayerCount: 4
Back
Fore
SplineSet
152.001221619 441.502888403 m 2
 142.896408336 441.502888403 135.504452135 448.895187915 135.504452135 458.000001198 c 0
 135.504452135 467.068164748 142.837015977 474.437230797 151.891353791 474.496409475 c 2
 305.00287002 475.497138339 l 2
 314.107683303 475.497138339 321.499639593 468.104825285 321.499639593 459.000012002 c 0
 321.499639593 449.931848453 314.167075751 442.562782404 305.108646209 442.503590525 c 2
 152.001221619 441.502888403 l 2
EndSplineSet
Layer: 2
SplineSet
152 458 m 29
 305 459 l 1053
EndSplineSet
EndChar

StartChar: uni001E
Encoding: 30 30 58
Width: 651
Flags: HW
LayerCount: 4
Fore
SplineSet
0 337 m 1
 651 337 l 1
 651 326 l 1
 0 326 l 1
 0 337 l 1
0 15 m 1
 651 15 l 1
 651 -15 l 5
 0 -15 l 5
 0 15 l 1
0 667 m 1
 651 667 l 1
 651 656 l 1
 0 656 l 1
 0 667 l 1
EndSplineSet
EndChar

StartChar: uni001F
Encoding: 31 31 59
Width: 651
Flags: HW
LayerCount: 4
Fore
SplineSet
0 337 m 1
 651 337 l 1
 651 326 l 1
 0 326 l 1
 0 337 l 1
0 15 m 5
 651 15 l 1
 651 -15 l 1
 0 -15 l 5
 0 15 l 5
0 667 m 1
 651 667 l 1
 651 656 l 1
 0 656 l 1
 0 667 l 1
EndSplineSet
EndChar

StartChar: period
Encoding: 46 46 60
Width: 500
Flags: HW
LayerCount: 4
Back
Fore
SplineSet
84 165 m 4
 84 174 91 181 100 181 c 6
 400 181 l 6
 409 181 416 174 416 165 c 4
 416 156 409 149 400 149 c 6
 100 149 l 6
 91 149 84 156 84 165 c 4
EndSplineSet
EndChar

StartChar: iacute
Encoding: 237 237 61
Width: 294
VWidth: 0
Flags: HW
VStem: 199 33<48 296 488 648>
LayerCount: 4
Fore
SplineSet
-13 189 m 0
 -13 190 96 335 105 346 c 1
 112 350 118 352 122 352 c 0
 132 352 134 342 134 336 c 2
 134 133 l 2
 134 82 147 16 196 16 c 0
 265 16 275 70 294 70 c 0
 297 70 300 69 304 66 c 0
 308 62 311 58 311 53 c 0
 311 50 309 46 307 43 c 0
 271 -2 243 -16 196 -16 c 0
 120 -16 102 67 102 133 c 2
 102 287 l 1
 13 169 l 2
 9 164 5 162 1 162 c 0
 -8 162 -17 170 -17 179 c 0
 -17 182 -15 186 -13 189 c 0
EndSplineSet
EndChar

StartChar: Iacute
Encoding: 205 205 62
Width: 330
VWidth: 0
Flags: HW
VStem: 199 33<48 296 488 648>
LayerCount: 4
Fore
SplineSet
-13 64 m 0
 41 129 138 235 138 336 c 0
 138 346 144 352 154 352 c 0
 164 352 170 346 170 336 c 2
 170 133 l 2
 170 82 183 16 232 16 c 0
 301 16 311 70 330 70 c 0
 333 70 336 69 340 66 c 0
 344 62 347 58 347 53 c 0
 347 50 345 46 343 43 c 0
 307 -2 279 -16 232 -16 c 0
 156 -16 138 68 138 133 c 2
 138 215 l 1
 102 143 44 80 13 42 c 0
 10 38 5 36 1 36 c 0
 -8 36 -17 45 -17 54 c 0
 -17 57 -16 61 -13 64 c 0
EndSplineSet
EndChar
